<svg version="1.2" xmlns="http://www.w3.org/2000/svg" viewBox="0 0 215 215" width="215" height="215">
	<title>artist-tools</title>
	<style>
		.s0 { fill: #8952f7 } 
	</style>
	<path class="s0" d="m136.9 118l27.9-33.2c6.6 0 19.2-1.8 30.6-13.2 23.1-23.1 4.3-66.8 3.4-68.6-0.9-2.1-3.1-3.3-5.3-2.9-2.2 0.3-4 2.1-4.2 4.4 0 0.1-2 17.1-12.5 18.2-1.3 0.2-2.5 0.2-3.7 0.2-3.1 0-5.5-0.4-7.7-0.8-2.1-0.3-4-0.7-6.1-0.7-4.6 0-8.8 1.8-13.7 5.7-9.9 8-11.2 22-11.2 28.3l-32.6 27.5-35.8-35.8q0 0-0.1-0.1-0.2-0.2-0.6-0.5 0 0-0.1-0.1-0.3-0.1-0.6-0.3l-35.5-16.7-14.2-6.7c-1.9-0.9-4.2-0.5-5.7 1q-0.2 0.3-0.4 0.5 0 0.1-0.1 0.1-0.1 0.2-0.2 0.4-0.1 0.1-0.2 0.3 0 0.1-0.1 0.2-0.1 0.2-0.2 0.5 0 0.1 0 0.2-0.1 0.2-0.1 0.5-0.1 0.1-0.1 0.2 0 0.3 0 0.5 0 0.2 0 0.3 0 0.2 0 0.5 0 0.1 0.1 0.2 0 0.3 0.1 0.5 0 0.2 0.1 0.3 0.1 0.2 0.2 0.5l23.3 49.6q0.2 0.4 0.4 0.6 0 0.1 0.1 0.1 0.2 0.4 0.5 0.7 0 0 0 0.1l39.5 39.4c-14.3 15-29 31.8-40.4 46.2-7.7 9.7-13.4 17.8-17.2 24.1-4.1 6.9-7.3 13.9-3.1 18.1 0.9 1 2.6 2 5.2 2 12.8 0 55.4-36.2 83.3-62.6l65.4 65.5c1 0.9 2.3 1.4 3.6 1.4 1.3 0 2.5-0.5 3.5-1.4l9.6-9.6-132.7-132.8 7.1-7 132.7 132.7 9.6-9.6c2-2 2-5.1 0-7.1zm-99.2-49.6l-8.8-18.6 6.4-6.4 18.6 8.7zm71.2 21.6l30-25.2 16.1 16.2-25.1 30z"/>
</svg>