<svg version="1.2" xmlns="http://www.w3.org/2000/svg" viewBox="0 0 463 463" width="463" height="463">
	<title>briefcase</title>
	<style>
		.s0 { fill: #8952f7 } 
	</style>
	<g>
		<path class="s0" d="m407.5 88h-88.5v-32.5c0-21.8-17.7-39.5-39.5-39.5h-96c-21.8 0-39.5 17.7-39.5 39.5v32.5h-88.5c-30.6 0-55.5 24.9-55.5 55.5v128c0 13 6.3 24.5 16 31.7q0 0.2 0 0.3v88c0 30.6 24.9 55.5 55.5 55.5h320c30.6 0 55.5-24.9 55.5-55.5v-88q0-0.1 0-0.3c9.7-7.2 16-18.7 16-31.7v-128c0-30.6-24.9-55.5-55.5-55.5zm-248.5-32.5c0-13.5 11-24.5 24.5-24.5h96c13.5 0 24.5 11 24.5 24.5v32.5h-17v-32.5c0-4.1-3.4-7.5-7.5-7.5h-96c-4.1 0-7.5 3.4-7.5 7.5v32.5h-17zm32 32.5v-25h81v25zm241 303.5c0 22.3-18.2 40.5-40.5 40.5h-320c-22.3 0-40.5-18.2-40.5-40.5v-81.4q4.1 0.9 8.5 0.9h40.5v8.5c0 13 10.5 23.5 23.5 23.5h16c13 0 23.5-10.5 23.5-23.5v-8.5h177v8.5c0 13 10.5 23.5 23.5 23.5h16c13 0 23.5-10.5 23.5-23.5v-8.5h40.5q4.4 0 8.5-0.9zm16-120c0 13.5-11 24.5-24.5 24.5h-40.5v-8.5c0-13-10.5-23.5-23.5-23.5h-16c-13 0-23.5 10.5-23.5 23.5v8.5h-177v-8.5c0-13-10.5-23.5-23.5-23.5h-16c-13 0-23.5 10.5-23.5 23.5v8.5h-40.5c-13.5 0-24.5-11-24.5-24.5v-128c0-22.4 18.2-40.5 40.5-40.5h352c22.3 0 40.5 18.1 40.5 40.5zm-320 39.5v8.5c0 4.7-3.8 8.5-8.5 8.5h-16c-4.7 0-8.5-3.8-8.5-8.5v-8.5zm240-15h-33v-8.5c0-4.7 3.8-8.5 8.5-8.5h16c4.7 0 8.5 3.8 8.5 8.5zm0 15v8.5c0 4.7-3.8 8.5-8.5 8.5h-16c-4.7 0-8.5-3.8-8.5-8.5v-8.5zm-240-15h-33v-8.5c0-4.7 3.8-8.5 8.5-8.5h16c4.7 0 8.5 3.8 8.5 8.5z"/>
	</g>
</svg>