<svg version="1.2" xmlns="http://www.w3.org/2000/svg" viewBox="0 0 464 464" width="464" height="464">
	<title>bug</title>
	<style>
		.s0 { fill: #8952f7 } 
	</style>
	<path class="s0" d="m406.3 236.1l-24-48c-0.7-1.4-1.9-2.6-3.3-3.3l-32-16c-1.8-0.9-3.9-1-5.8-0.4l-19.3 6.4q-2.1-9-4.6-17.9c-6.5-22.8-14.7-41.6-24.4-56.1q0.8-0.8 1.4-1.9l16-32c0.5-1.1 0.8-2.2 0.8-3.4v-29.6c0-3-0.9-6-2.6-8.6l-14.7-22c-2.3-3.4-6.9-4.3-10.4-2-3.4 2.3-4.3 6.9-2 10.4l14.6 21.9q0.1 0.2 0.1 0.3v5.6c0 11.5-6.9 21.7-17.6 25.9l-15.8 6.4c-9.6-5.2-19.9-7.8-31.1-7.8-11.1 0-21.5 2.6-31.1 7.8l-15.8-6.4c-10.7-4.2-17.6-14.4-17.6-25.9v-5.6q0-0.1 0.1-0.3l14.6-21.9c2.3-3.5 1.4-8.1-2-10.4-3.5-2.3-8.1-1.4-10.4 2l-14.7 22c-1.7 2.6-2.6 5.6-2.6 8.6v29.6c0 1.2 0.3 2.3 0.8 3.4l16 32q0.6 1.1 1.4 1.9c-9.7 14.5-17.9 33.3-24.4 56.1q-2.5 8.9-4.6 17.9l-19.3-6.4c-1.9-0.6-4-0.5-5.8 0.4l-32 16c-1.4 0.7-2.6 1.9-3.3 3.3l-24 48c-1.9 3.8-0.4 8.3 3.3 10.1 1.1 0.5 2.3 0.8 3.4 0.8 2.7 0 5.4-1.5 6.7-4.1l22.9-45.8 27-13.5 18 6c-3.4 17.7-5.6 35.3-7.2 51.5l-21.8 7.3c-1.7 0.6-3.2 1.8-4.1 3.4l-32 56c-0.5 0.9-0.8 1.9-1 2.9l-8 72c-0.4 4.1 2.6 7.8 6.7 8.3q0.4 0 0.8 0c3.8 0 7-2.8 7.5-6.7l7.8-70.4 29.8-52.2 13-4.3c-1.3 19.6-1.6 36-1.6 46.1 0 74.1 48.9 126.1 78.1 150.5 7.4 6.1 16.4 9.2 25.4 9.2 9 0 18-3.1 25.4-9.2 29.2-24.4 78.1-76.4 78.1-150.5 0-10.1-0.3-26.5-1.6-46.1l13 4.3 29.8 52.2 7.9 70.4c0.4 3.9 3.6 6.7 7.4 6.7q0.4 0 0.8 0c4.2-0.5 7.1-4.2 6.7-8.3l-8-72q-0.2-1.6-1-2.9l-32-56c-0.9-1.6-2.4-2.8-4.1-3.4l-21.8-7.3c-1.5-16.2-3.8-33.8-7.2-51.5l18-6 27 13.5 22.9 45.8c1.3 2.6 4 4.1 6.7 4.1 1.1 0 2.3-0.3 3.4-0.8 3.7-1.8 5.2-6.3 3.3-10.1zm-174.7 10.7c-10.3-6.2-40.9-26.9-66.3-63.8h132.6c-25.3 36.8-56 57.5-66.3 63.8zm-63.1-110c4.9 2.4 9.9 3.6 15 3.6 8.9 0 17.7-3.8 25.5-11.3 1.4-1.3 3.5-2.1 5.6-2.1h34c2.1 0 4.2 0.8 5.6 2.1 12.2 11.8 27 14.4 40.5 7.7q4.4 11.1 8.2 24.3 1 3.4 1.9 6.9h-65.7v-8.5c0-4.1-3.4-7.5-7.5-7.5-4.1 0-7.5 3.4-7.5 7.5v8.5h-65.7q0.9-3.5 1.9-6.9 3.8-13.2 8.2-24.3zm21-36.7l9.1 18.2c-7.8 7.6-15.9 9.1-24 4.7q6.8-13.5 14.9-22.9zm99.1 22.9c-8.1 4.4-16.2 2.9-24-4.7l9.1-18.2q8.1 9.4 14.9 22.9zm-4.5-43.6q2.1-0.9 4.1-1.9l-5.2 10.5q-2.9-3.1-5.8-5.8zm-21.8 9.9l-11.4 22.8q-1.2-0.1-2.4-0.1h-33.9q-1.2 0-2.4 0.1l-11.4-22.8c9.3-6.9 19.5-10.3 30.8-10.3 11.2 0 21.4 3.4 30.7 10.3zm-83.3-9.9l7 2.7q-3 2.7-5.8 5.9l-5.3-10.6q2 1.1 4.1 2zm-26 112.2c27.3 39.6 59.8 61.4 71.1 68.2v47.7c-18.2 13-33 32.7-41.2 54.7-4.8 13-7 25.9-6.6 38.2-18-24.9-33.2-57.6-33.2-96.9 0-20.2 1.1-66 9.9-111.9zm94.3 250.9c-9.1 7.6-22.4 7.6-31.5 0-5.4-4.6-11.6-10.1-18-16.7-8.4-16.6-8.7-37.3-0.8-58.4 6.9-18.7 19.4-35.5 34.6-46.8 15.1 11.3 27.6 28.1 34.5 46.8 7.9 21.1 7.6 41.8-0.8 58.4-6.4 6.6-12.6 12.1-18 16.7zm39.5-42.1c0.4-12.3-1.8-25.2-6.6-38.2-8.2-22-23-41.7-41.1-54.7v-47.7c11.2-6.8 43.8-28.6 71-68.2 8.8 45.9 10 91.7 10 111.9 0 39.3-15.3 72-33.3 96.9z"/>
</svg>