<svg version="1.2" xmlns="http://www.w3.org/2000/svg" viewBox="0 0 476 476" width="476" height="476">
	<title>group</title>
	<style>
		.s0 { fill: #8952f7 } 
	</style>
	<g>
		<g>
			<g>
				<path class="s0" d="m151.5 145.3c0 23.4 9.2 50.4 24.5 72.2 17.4 24.8 39.4 38.4 61.9 38.4 22.6 0 44.5-13.6 61.9-38.4 15.3-21.8 24.5-48.8 24.5-72.2 0-47.7-38.8-86.4-86.4-86.4-47.6 0-86.4 38.7-86.4 86.4zm86.4-71.4c39.4 0 71.4 32 71.4 71.4 0 20.1-8.3 44.5-21.7 63.6-14.3 20.3-32.4 32-49.7 32-17.2 0-35.3-11.7-49.6-32-13.4-19.1-21.8-43.5-21.8-63.6 0-39.4 32.1-71.4 71.4-71.4z"/>
				<path class="s0" d="m302.4 239.2c-2.9-1.4-6.3-0.8-8.5 1.4-16.8 16.8-36.2 25.6-56 25.6-19.8 0-39.1-8.8-55.9-25.6-2.3-2.2-5.7-2.8-8.5-1.4-25.3 12-46.7 30.8-61.8 54.4-15.6 24.2-23.9 52.2-23.9 81.2v0.1c0 2.1 0.9 4.1 2.5 5.5 40.5 36.7 92.9 57 147.6 57 54.7 0 107.2-20.3 147.6-57 1.6-1.4 2.5-3.4 2.5-5.5v-0.1c0-29-8.2-57-23.8-81.2-15.2-23.6-36.6-42.4-61.8-54.4zm-64.5 183.2c-49.8 0-97.7-18.1-135-50.9 0.5-24.9 7.9-48.9 21.4-69.8 12.7-19.8 30.3-35.8 51-46.7 18.8 17.2 40.3 26.2 62.6 26.2 22.3 0 43.9-9 62.6-26.2 20.8 10.9 38.3 26.9 51.1 46.7 13.4 20.9 20.8 44.9 21.4 69.8-37.4 32.8-85.2 50.9-135.1 50.9z"/>
				<path class="s0" d="m455.1 243.9c-13.3-20.5-31.9-36.9-53.9-47.4-2.8-1.4-6.3-0.8-8.5 1.5-14.3 14.2-30.8 21.8-47.7 21.8-9.1 0-18.1-2.2-26.8-6.6-3.7-1.8-8.2-0.3-10.1 3.4-1.9 3.7-0.4 8.2 3.4 10 10.7 5.4 22 8.2 33.5 8.2 19.4 0 38-7.8 54.3-22.5 17.5 9.3 32.4 23 43.2 39.7 11.4 17.8 17.7 38.3 18.3 59.4-18.5 16.2-40.5 28.5-63.9 35.7-4 1.2-6.2 5.4-5 9.3 1 3.3 4 5.3 7.2 5.3q1.1 0 2.2-0.3c26.5-8.2 51.4-22.4 72.1-41.1 1.6-1.4 2.5-3.4 2.5-5.5v-0.1c0-25.3-7.2-49.7-20.8-70.8z"/>
				<path class="s0" d="m130.5 210.5c7.9 0 15.8-2 23.5-5.8 3.7-1.8 5.2-6.3 3.4-10-1.9-3.7-6.4-5.3-10.1-3.4-5.5 2.8-11.2 4.2-16.8 4.2-14.5 0-29.8-9.9-42-27.2-11.4-16.3-18.5-37.1-18.5-54.3 0-33.4 27.1-60.5 60.5-60.5 15.7 0 30.7 6 42 16.9 3 2.9 7.7 2.8 10.6-0.2 2.9-2.9 2.8-7.7-0.2-10.6-14.1-13.6-32.8-21.1-52.4-21.1-41.7 0-75.5 33.9-75.5 75.5 0 20.4 7.9 43.9 21.2 62.9 15.2 21.6 34.5 33.6 54.3 33.6z"/>
				<path class="s0" d="m61 340.1c-16.7-7.2-32.2-16.9-46-29 0.6-21.1 6.9-41.5 18.3-59.2 10.8-16.7 25.6-30.3 43-39.6 16.3 14.7 34.9 22.4 54.2 22.4 11.6 0 23-2.8 33.8-8.3 3.7-1.8 5.2-6.4 3.3-10-1.8-3.7-6.4-5.2-10.1-3.4-8.7 4.5-17.8 6.7-27 6.7-16.8 0-33.3-7.5-47.5-21.7-2.3-2.3-5.7-2.9-8.5-1.5-22 10.4-40.6 26.8-53.8 47.3-13.5 21-20.7 45.4-20.7 70.6v0.1c0 2.1 0.9 4.1 2.5 5.5 15.6 14.2 33.3 25.6 52.6 33.9q1.5 0.6 3 0.6c2.9 0 5.6-1.7 6.9-4.5 1.6-3.8-0.2-8.2-4-9.9z"/>
				<path class="s0" d="m69.9 351c-2.7 6.4 4.5 12.8 10.6 9.4 3.2-1.8 4.7-5.9 3.2-9.4-2.4-6.1-11.4-5.9-13.8 0z"/>
				<path class="s0" d="m83.7 351c0.2 0.5-0.2-0.5 0 0z"/>
				<path class="s0" d="m303.3 70.4c11.4-10.9 26.3-16.9 42.1-16.9 33.3 0 60.5 27.1 60.5 60.5 0 17.2-7.1 38-18.6 54.3-12.1 17.3-27.4 27.2-41.9 27.2-5.6 0-11.3-1.4-16.9-4.2-3.7-1.9-8.2-0.3-10 3.4-1.9 3.7-0.4 8.2 3.3 10 7.7 3.8 15.6 5.8 23.6 5.8 19.7 0 39-12 54.2-33.6 13.3-19 21.3-42.5 21.3-62.9 0-41.6-33.9-75.5-75.5-75.5-19.7 0-38.3 7.5-52.5 21.1-3 2.9-3 7.7-0.2 10.6 2.9 3 7.7 3.1 10.6 0.2z"/>
			</g>
		</g>
	</g>
</svg>