<svg version="1.2" xmlns="http://www.w3.org/2000/svg" viewBox="0 0 474 474" width="474" height="474">
	<title>handshake</title>
	<style>
		.s0 { fill: #8952f7 } 
	</style>
	<path class="s0" d="m471.2 162.9c-2.6-2.5-6.7-2.5-9.2 0l-40.5 40.5c-1.1 1-1.7 2.4-1.9 3.9-3.2 30.8-17 59.9-39 81.8l-9.6 9.6-69.9-69.9q6.6 1.6 13 1.6c6.1 0 12-1.1 17.6-3.4 3.3-1.3 4.9-5.1 3.5-8.5-1.3-3.3-5.1-4.9-8.5-3.5-26.7 10.9-57.6-18.2-61.5-22l-18.6-18.6c2.4-9.8 0.4-20.3-5.6-28.8-6.7-9.7-17.3-15.2-29.3-15.2l-44.9 0.3q-0.1 0-0.2 0c-4.3 0-8.3-1.6-11.4-4.7-3.1-3-4.8-7.1-4.8-11.5v-0.6c0-8.8 6.9-15.9 15.6-16.2l81.9-3.3c29.6-1.1 59.1 7.9 83 25.3 2.6 1.9 6.1 1.6 8.4-0.6l43-43.1c2.6-2.5 2.6-6.6 0-9.2-2.5-2.5-6.6-2.5-9.1 0l-39.2 39.2c-25.4-17.1-55.9-25.8-86.6-24.6l-81.9 3.3q-0.3 0-0.6 0l-31.1-31.1c-2.5-2.5-6.6-2.5-9.2 0-2.5 2.6-2.5 6.7 0 9.2l26.4 26.4c-8.2 5.1-13.6 14.3-13.6 24.7v0.6c0 7.9 3.1 15.2 8.7 20.8 5.5 5.5 12.9 8.5 20.7 8.4l45-0.3c10.3 0 16.1 6 18.6 9.6 1.9 2.7 3.1 5.8 3.7 8.9l-2.2-2.2c-2.5-2.6-6.6-2.6-9.2 0-2.5 2.5-2.5 6.6 0 9.2l146.7 146.6c6.3 6.4 6.3 16.7 0 23-6.3 6.3-16.6 6.3-23 0l-93.4-93.4c-2.5-2.6-6.6-2.6-9.2 0-2.5 2.5-2.5 6.6 0 9.2l100.6 100.6c6.4 6.3 6.4 16.6 0 23-3 3-7.1 4.7-11.4 4.7-4.4 0-8.5-1.7-11.5-4.7l-95.4-95.4c-2.6-2.6-6.7-2.6-9.2 0-2.5 2.5-2.5 6.6 0 9.2l78.2 78.1c6.3 6.4 6.3 16.7-0.1 23-6.3 6.3-16.6 6.3-22.9 0l-84.9-84.9c-2.6-2.5-6.7-2.5-9.2 0-2.5 2.5-2.5 6.7 0 9.2l63 63c6.3 6.3 6.3 16.6 0 22.9-6.4 6.4-16.7 6.4-23 0l-113.9-113.9c-22-21.9-35.8-51-39-81.8-0.2-1.5-0.8-2.9-1.9-3.9l-52.1-52.1c-2.5-2.6-6.7-2.6-9.2 0-2.5 2.5-2.5 6.6 0 9.2l50.5 50.5c4 32.9 19 63.8 42.5 87.3l9.6 9.6c-3.6 4.9-5.5 10.9-5.5 17.1 0 7.8 3 15.1 8.5 20.7 5.7 5.7 13.2 8.5 20.7 8.5q1.1 0 2.2-0.1-0.4 2.3-0.4 4.8c0 7.8 3.1 15.1 8.6 20.6 5.7 5.7 13.2 8.6 20.7 8.6q2.2 0 4.3-0.3c-1.3 8.8 1.4 18.2 8.3 25 5.5 5.5 12.8 8.6 20.6 8.6 7 0 13.6-2.5 18.8-6.9 5.3 4.2 11.8 6.3 18.2 6.3 7.5 0 15-2.9 20.7-8.6 4.2-4.2 6.9-9.4 7.9-14.9l4.8 4.7c5.7 5.7 13.2 8.5 20.7 8.5 7.4 0 14.9-2.8 20.6-8.5 4.3-4.3 6.9-9.5 8-15l0.1 0.1c5.5 5.5 12.8 8.5 20.7 8.5 7.8 0 15.1-3 20.6-8.5 8.4-8.4 10.6-20.6 6.7-31 6.7-0.5 13.2-3.3 18.3-8.4 10.8-10.9 11.4-28.2 1.5-39.7l9.7-9.7c23.5-23.5 38.5-54.4 42.5-87.3l38.9-38.9c2.5-2.6 2.5-6.7 0-9.2zm-354.5 173.6c-3-3.1-4.7-7.2-4.7-11.5 0-2.7 0.6-5.4 1.9-7.7l22 22c-2.4 1.3-5 1.9-7.7 1.9-4.3 0-8.4-1.7-11.5-4.7zm31.1 33.8c-3.1-3-4.8-7.1-4.8-11.4 0-3.5 1.1-6.7 3-9.4l22.7 22.6c-6.4 4.5-15.2 3.9-20.9-1.8zm33.3 33.3c-5.7-5.7-6.3-14.5-1.8-20.9l22.6 22.7c-2.7 1.9-6 3-9.4 3-4.3 0-8.4-1.7-11.4-4.8z"/>
</svg>